<svg xmlns="http://www.w3.org/2000/svg" xmlns:xlink="http://www.w3.org/1999/xlink" contentStyleType="text/css" data-diagram-type="CLASS" height="863px" preserveAspectRatio="none" style="width:1119px;height:863px;background:#FFFFFF;" version="1.1" viewBox="0 0 1119 863" width="1119px" zoomAndPan="magnify"><title>ATM_Scenario - Class Diagram</title><defs/><g><g class="title" data-source-line="1"><text fill="#000000" font-family="sans-serif" font-size="14" font-weight="bold" lengthAdjust="spacing" textLength="238.376" x="433.4791" y="22.9951">ATM_Scenario - Class Diagram</text></g><!--class Branch--><g class="entity" data-entity="Branch" data-source-line="8" data-uid="ent0002" id="entity_Branch"><rect fill="#F1F1F1" height="145.7813" rx="2.5" ry="2.5" style="stroke:#181818;stroke-width:0.5;" width="163.7715" x="590.07" y="496.6069"/><ellipse cx="643.0143" cy="512.6069" fill="#ADD1B2" rx="11" ry="11" style="stroke:#181818;stroke-width:1;"/><path d="M645.9831,518.2475 Q645.405,518.5444 644.7643,518.685 Q644.1237,518.8413 643.4206,518.8413 Q640.9206,518.8413 639.5925,517.2006 Q638.28,515.5444 638.28,512.4194 Q638.28,509.2944 639.5925,507.6381 Q640.9206,505.9819 643.4206,505.9819 Q644.1237,505.9819 644.7643,506.1381 Q645.4206,506.2944 645.9831,506.5912 L645.9831,509.31 Q645.3581,508.7319 644.7643,508.4662 Q644.1706,508.185 643.5456,508.185 Q642.2018,508.185 641.5143,509.2631 Q640.8268,510.3256 640.8268,512.4194 Q640.8268,514.5131 641.5143,515.5913 Q642.2018,516.6538 643.5456,516.6538 Q644.1706,516.6538 644.7643,516.3881 Q645.3581,516.1069 645.9831,515.5288 L645.9831,518.2475 Z " fill="#000000"/><text fill="#000000" font-family="sans-serif" font-size="14" lengthAdjust="spacing" textLength="49.3828" x="663.5143" y="517.4536">Branch</text><line style="stroke:#181818;stroke-width:0.5;" x1="591.07" x2="752.8415" y1="528.6069" y2="528.6069"/><text fill="#000000" font-family="sans-serif" font-size="14" lengthAdjust="spacing" textLength="151.7715" x="596.07" y="545.602">+BranchName: string</text><text fill="#000000" font-family="sans-serif" font-size="14" lengthAdjust="spacing" textLength="64.9346" x="596.07" y="561.8989">+Bsb: int</text><text fill="#000000" font-family="sans-serif" font-size="14" lengthAdjust="spacing" textLength="117.3936" x="596.07" y="578.1957">+Address: string</text><text fill="#000000" font-family="sans-serif" font-size="14" lengthAdjust="spacing" textLength="111.248" x="596.07" y="594.4926">+Suburb: string</text><text fill="#000000" font-family="sans-serif" font-size="14" lengthAdjust="spacing" textLength="98.1436" x="596.07" y="610.7895">+State: string</text><text fill="#000000" font-family="sans-serif" font-size="14" lengthAdjust="spacing" textLength="104.7813" x="596.07" y="627.0864">+PostCode: int</text><line style="stroke:#181818;stroke-width:0.5;" x1="591.07" x2="752.8415" y1="634.3881" y2="634.3881"/></g><!--class Customer--><g class="entity" data-entity="Customer" data-source-line="17" data-uid="ent0003" id="entity_Customer"><rect fill="#F1F1F1" height="129.4844" rx="2.5" ry="2.5" style="stroke:#181818;stroke-width:0.5;" width="227.9199" x="7" y="718.6869"/><ellipse cx="82.708" cy="734.6869" fill="#ADD1B2" rx="11" ry="11" style="stroke:#181818;stroke-width:1;"/><path d="M85.6768,740.3275 Q85.0986,740.6244 84.458,740.765 Q83.8174,740.9213 83.1143,740.9213 Q80.6143,740.9213 79.2861,739.2806 Q77.9736,737.6244 77.9736,734.4994 Q77.9736,731.3744 79.2861,729.7181 Q80.6143,728.0619 83.1143,728.0619 Q83.8174,728.0619 84.458,728.2181 Q85.1143,728.3744 85.6768,728.6713 L85.6768,731.39 Q85.0518,730.8119 84.458,730.5463 Q83.8643,730.265 83.2393,730.265 Q81.8955,730.265 81.208,731.3431 Q80.5205,732.4056 80.5205,734.4994 Q80.5205,736.5931 81.208,737.6713 Q81.8955,738.7338 83.2393,738.7338 Q83.8643,738.7338 84.458,738.4681 Q85.0518,738.1869 85.6768,737.6088 L85.6768,740.3275 Z " fill="#000000"/><text fill="#000000" font-family="sans-serif" font-size="14" lengthAdjust="spacing" textLength="68.0039" x="103.208" y="739.5336">Customer</text><line style="stroke:#181818;stroke-width:0.5;" x1="8" x2="233.9199" y1="750.6869" y2="750.6869"/><text fill="#000000" font-family="sans-serif" font-size="14" lengthAdjust="spacing" textLength="129.7461" x="13" y="767.682">+firstName: string</text><text fill="#000000" font-family="sans-serif" font-size="14" lengthAdjust="spacing" textLength="127.6406" x="13" y="783.9789">+lastName: string</text><text fill="#000000" font-family="sans-serif" font-size="14" lengthAdjust="spacing" textLength="124.1133" x="13" y="800.2757">+customerNo: int</text><text fill="#000000" font-family="sans-serif" font-size="14" lengthAdjust="spacing" textLength="142.2148" x="13" y="816.5726">+dateOfBirth: string</text><text fill="#000000" font-family="sans-serif" font-size="14" lengthAdjust="spacing" textLength="215.9199" x="13" y="832.8695">+PhoneNumbers: List&lt;string&gt;</text><line style="stroke:#181818;stroke-width:0.5;" x1="8" x2="233.9199" y1="840.1713" y2="840.1713"/></g><!--class Account--><g class="entity" data-entity="Account" data-source-line="25" data-uid="ent0004" id="entity_Account"><rect fill="#F1F1F1" height="162.0781" rx="2.5" ry="2.5" style="stroke:#181818;stroke-width:0.5;" width="359.293" x="195.31" y="488.4569"/><ellipse cx="342.3203" cy="504.4569" fill="#ADD1B2" rx="11" ry="11" style="stroke:#181818;stroke-width:1;"/><path d="M345.289,510.0975 Q344.7109,510.3944 344.0703,510.535 Q343.4296,510.6912 342.7265,510.6912 Q340.2265,510.6912 338.8984,509.0506 Q337.5859,507.3944 337.5859,504.2694 Q337.5859,501.1444 338.8984,499.4881 Q340.2265,497.8319 342.7265,497.8319 Q343.4296,497.8319 344.0703,497.9881 Q344.7265,498.1444 345.289,498.4412 L345.289,501.16 Q344.664,500.5819 344.0703,500.3162 Q343.4765,500.035 342.8515,500.035 Q341.5078,500.035 340.8203,501.1131 Q340.1328,502.1756 340.1328,504.2694 Q340.1328,506.3631 340.8203,507.4412 Q341.5078,508.5037 342.8515,508.5037 Q343.4765,508.5037 344.0703,508.2381 Q344.664,507.9569 345.289,507.3787 L345.289,510.0975 Z " fill="#000000"/><text fill="#000000" font-family="sans-serif" font-size="14" lengthAdjust="spacing" textLength="56.7725" x="362.8203" y="509.3036">Account</text><line style="stroke:#181818;stroke-width:0.5;" x1="196.31" x2="553.603" y1="520.4569" y2="520.4569"/><text fill="#000000" font-family="sans-serif" font-size="14" lengthAdjust="spacing" textLength="135.8984" x="201.31" y="537.452">+accountNo: string</text><text fill="#000000" font-family="sans-serif" font-size="14" lengthAdjust="spacing" textLength="123.7305" x="201.31" y="553.7489">+balance: double</text><text fill="#000000" font-family="sans-serif" font-size="14" lengthAdjust="spacing" textLength="127.7979" x="201.31" y="570.0457">+password: string</text><text fill="#000000" font-family="sans-serif" font-size="14" lengthAdjust="spacing" textLength="143.0967" x="201.31" y="586.3426">customer: Customer</text><line style="stroke:#181818;stroke-width:1;" x1="196.31" x2="553.603" y1="593.6444" y2="593.6444"/><text fill="#000000" font-family="sans-serif" font-size="14" lengthAdjust="spacing" textLength="275.9736" x="201.31" y="610.6395">+AddToBalance(addition: double): bool</text><text fill="#000000" font-family="sans-serif" font-size="14" lengthAdjust="spacing" textLength="347.293" x="201.31" y="626.9364">+RemoveFromBalance(subtraction: double): bool</text><text fill="#000000" font-family="sans-serif" font-size="14" lengthAdjust="spacing" textLength="344.9688" x="201.31" y="643.2332">+login(accountNo: string, password: string): bool</text></g><!--class Cheque_Account--><g class="entity" data-entity="Cheque_Account" data-source-line="36" data-uid="ent0005" id="entity_Cheque_Account"><rect fill="#F1F1F1" height="64.2969" rx="2.5" ry="2.5" style="stroke:#181818;stroke-width:0.5;" width="209.6338" x="270.14" y="751.2769"/><ellipse cx="312.242" cy="767.2769" fill="#ADD1B2" rx="11" ry="11" style="stroke:#181818;stroke-width:1;"/><path d="M315.2107,772.9175 Q314.6326,773.2144 313.992,773.355 Q313.3513,773.5113 312.6482,773.5113 Q310.1482,773.5113 308.8201,771.8706 Q307.5076,770.2144 307.5076,767.0894 Q307.5076,763.9644 308.8201,762.3081 Q310.1482,760.6519 312.6482,760.6519 Q313.3513,760.6519 313.992,760.8081 Q314.6482,760.9644 315.2107,761.2613 L315.2107,763.98 Q314.5857,763.4019 313.992,763.1363 Q313.3982,762.855 312.7732,762.855 Q311.4295,762.855 310.742,763.9331 Q310.0545,764.9956 310.0545,767.0894 Q310.0545,769.1831 310.742,770.2613 Q311.4295,771.3238 312.7732,771.3238 Q313.3982,771.3238 313.992,771.0581 Q314.5857,770.7769 315.2107,770.1988 L315.2107,772.9175 Z " fill="#000000"/><text fill="#000000" font-family="sans-serif" font-size="14" lengthAdjust="spacing" textLength="117.4072" x="332.2646" y="772.1236">Cheque_Account</text><line style="stroke:#181818;stroke-width:0.5;" x1="271.14" x2="478.7738" y1="783.2769" y2="783.2769"/><line style="stroke:#181818;stroke-width:0.5;" x1="271.14" x2="478.7738" y1="791.2769" y2="791.2769"/><text fill="#000000" font-family="sans-serif" font-size="14" lengthAdjust="spacing" textLength="197.6338" x="276.14" y="808.272">(inherits Account attributes)</text></g><!--class Everyday_Account--><g class="entity" data-entity="Everyday_Account" data-source-line="40" data-uid="ent0006" id="entity_Everyday_Account"><rect fill="#F1F1F1" height="64.2969" rx="2.5" ry="2.5" style="stroke:#181818;stroke-width:0.5;" width="209.6338" x="515.14" y="751.2769"/><ellipse cx="551.8863" cy="767.2769" fill="#ADD1B2" rx="11" ry="11" style="stroke:#181818;stroke-width:1;"/><path d="M554.8551,772.9175 Q554.277,773.2144 553.6363,773.355 Q552.9957,773.5113 552.2926,773.5113 Q549.7926,773.5113 548.4645,771.8706 Q547.152,770.2144 547.152,767.0894 Q547.152,763.9644 548.4645,762.3081 Q549.7926,760.6519 552.2926,760.6519 Q552.9957,760.6519 553.6363,760.8081 Q554.2926,760.9644 554.8551,761.2613 L554.8551,763.98 Q554.2301,763.4019 553.6363,763.1363 Q553.0426,762.855 552.4176,762.855 Q551.0738,762.855 550.3863,763.9331 Q549.6988,764.9956 549.6988,767.0894 Q549.6988,769.1831 550.3863,770.2613 Q551.0738,771.3238 552.4176,771.3238 Q553.0426,771.3238 553.6363,771.0581 Q554.2301,770.7769 554.8551,770.1988 L554.8551,772.9175 Z " fill="#000000"/><text fill="#000000" font-family="sans-serif" font-size="14" lengthAdjust="spacing" textLength="129.3086" x="570.7189" y="772.1236">Everyday_Account</text><line style="stroke:#181818;stroke-width:0.5;" x1="516.14" x2="723.7738" y1="783.2769" y2="783.2769"/><line style="stroke:#181818;stroke-width:0.5;" x1="516.14" x2="723.7738" y1="791.2769" y2="791.2769"/><text fill="#000000" font-family="sans-serif" font-size="14" lengthAdjust="spacing" textLength="197.6338" x="521.14" y="808.272">(inherits Account attributes)</text></g><!--class CreditAccount--><g class="entity" data-entity="CreditAccount" data-source-line="44" data-uid="ent0007" id="entity_CreditAccount"><rect fill="#F1F1F1" height="145.7813" rx="2.5" ry="2.5" style="stroke:#181818;stroke-width:0.5;" width="352.7441" x="759.59" y="710.5369"/><ellipse cx="882.1208" cy="726.5369" fill="#ADD1B2" rx="11" ry="11" style="stroke:#181818;stroke-width:1;"/><path d="M885.0895,732.1775 Q884.5114,732.4744 883.8708,732.615 Q883.2301,732.7713 882.527,732.7713 Q880.027,732.7713 878.6989,731.1306 Q877.3864,729.4744 877.3864,726.3494 Q877.3864,723.2244 878.6989,721.5681 Q880.027,719.9119 882.527,719.9119 Q883.2301,719.9119 883.8708,720.0681 Q884.527,720.2244 885.0895,720.5213 L885.0895,723.24 Q884.4645,722.6619 883.8708,722.3963 Q883.277,722.115 882.652,722.115 Q881.3083,722.115 880.6208,723.1931 Q879.9333,724.2556 879.9333,726.3494 Q879.9333,728.4431 880.6208,729.5213 Q881.3083,730.5838 882.652,730.5838 Q883.277,730.5838 883.8708,730.3181 Q884.4645,730.0369 885.0895,729.4588 L885.0895,732.1775 Z " fill="#000000"/><text fill="#000000" font-family="sans-serif" font-size="14" lengthAdjust="spacing" textLength="99.1826" x="902.6208" y="731.3836">CreditAccount</text><line style="stroke:#181818;stroke-width:0.5;" x1="760.59" x2="1111.3341" y1="742.5369" y2="742.5369"/><text fill="#000000" font-family="sans-serif" font-size="14" lengthAdjust="spacing" textLength="107.5088" x="765.59" y="759.532">-creditLimit: int</text><text fill="#000000" font-family="sans-serif" font-size="14" lengthAdjust="spacing" textLength="172.6689" x="765.59" y="775.8289">-creditInterestRate: float</text><text fill="#000000" font-family="sans-serif" font-size="14" lengthAdjust="spacing" textLength="197.6338" x="765.59" y="792.1257">(inherits Account attributes)</text><line style="stroke:#181818;stroke-width:1;" x1="760.59" x2="1111.3341" y1="799.4275" y2="799.4275"/><text fill="#000000" font-family="sans-serif" font-size="14" lengthAdjust="spacing" textLength="225.2168" x="765.59" y="816.4226">+SetCreditLimit(creditLimit: int)</text><text fill="#000000" font-family="sans-serif" font-size="14" lengthAdjust="spacing" textLength="340.7441" x="765.59" y="832.7195">+setCreditInterestRate(creditInterestRate: float)</text><text fill="#000000" font-family="sans-serif" font-size="14" lengthAdjust="spacing" textLength="127.3945" x="765.59" y="849.0164">+ChargeInterest()</text></g><!--class Card--><g class="entity" data-entity="Card" data-source-line="54" data-uid="ent0008" id="entity_Card"><rect fill="#F1F1F1" height="162.0781" rx="2.5" ry="2.5" style="stroke:#181818;stroke-width:0.5;" width="240.4912" x="254.71" y="266.3769"/><ellipse cx="354.2071" cy="282.3769" fill="#ADD1B2" rx="11" ry="11" style="stroke:#181818;stroke-width:1;"/><path d="M357.1758,288.0175 Q356.5977,288.3144 355.9571,288.455 Q355.3164,288.6112 354.6133,288.6112 Q352.1133,288.6112 350.7852,286.9706 Q349.4727,285.3144 349.4727,282.1894 Q349.4727,279.0644 350.7852,277.4081 Q352.1133,275.7519 354.6133,275.7519 Q355.3164,275.7519 355.9571,275.9081 Q356.6133,276.0644 357.1758,276.3612 L357.1758,279.08 Q356.5508,278.5019 355.9571,278.2362 Q355.3633,277.955 354.7383,277.955 Q353.3946,277.955 352.7071,279.0331 Q352.0196,280.0956 352.0196,282.1894 Q352.0196,284.2831 352.7071,285.3612 Q353.3946,286.4237 354.7383,286.4237 Q355.3633,286.4237 355.9571,286.1581 Q356.5508,285.8769 357.1758,285.2987 L357.1758,288.0175 Z " fill="#000000"/><text fill="#000000" font-family="sans-serif" font-size="14" lengthAdjust="spacing" textLength="32.9971" x="374.7071" y="287.2236">Card</text><line style="stroke:#181818;stroke-width:0.5;" x1="255.71" x2="494.2012" y1="298.3769" y2="298.3769"/><text fill="#000000" font-family="sans-serif" font-size="14" lengthAdjust="spacing" textLength="138.2705" x="260.71" y="315.372">+cardNumber: long</text><text fill="#000000" font-family="sans-serif" font-size="14" lengthAdjust="spacing" textLength="60.7988" x="260.71" y="331.6689">+pin: int</text><text fill="#000000" font-family="sans-serif" font-size="14" lengthAdjust="spacing" textLength="111.8975" x="260.71" y="347.9657">+IsLocked: bool</text><text fill="#000000" font-family="sans-serif" font-size="14" lengthAdjust="spacing" textLength="120.4287" x="260.71" y="364.2626">owner: Customer</text><text fill="#000000" font-family="sans-serif" font-size="14" lengthAdjust="spacing" textLength="176.9414" x="260.71" y="380.5595">accounts: List&lt;Account&gt;</text><line style="stroke:#181818;stroke-width:1;" x1="255.71" x2="494.2012" y1="387.8612" y2="387.8612"/><text fill="#000000" font-family="sans-serif" font-size="14" lengthAdjust="spacing" textLength="228.4912" x="260.71" y="404.8564">+AddAccount(account: Account)</text><text fill="#000000" font-family="sans-serif" font-size="14" lengthAdjust="spacing" textLength="186.3271" x="260.71" y="421.1532">+NumberOfAccounts(): int</text></g><!--class ATM--><g class="entity" data-entity="ATM" data-source-line="65" data-uid="ent0009" id="entity_ATM"><rect fill="#F1F1F1" height="145.7813" rx="2.5" ry="2.5" style="stroke:#181818;stroke-width:0.5;" width="283.4893" x="530.22" y="274.5269"/><ellipse cx="652.6106" cy="290.5269" fill="#ADD1B2" rx="11" ry="11" style="stroke:#181818;stroke-width:1;"/><path d="M655.5794,296.1675 Q655.0013,296.4644 654.3606,296.605 Q653.72,296.7613 653.0169,296.7613 Q650.5169,296.7613 649.1888,295.1206 Q647.8763,293.4644 647.8763,290.3394 Q647.8763,287.2144 649.1888,285.5581 Q650.5169,283.9019 653.0169,283.9019 Q653.72,283.9019 654.3606,284.0581 Q655.0169,284.2144 655.5794,284.5113 L655.5794,287.23 Q654.9544,286.6519 654.3606,286.3863 Q653.7669,286.105 653.1419,286.105 Q651.7981,286.105 651.1106,287.1831 Q650.4231,288.2456 650.4231,290.3394 Q650.4231,292.4331 651.1106,293.5113 Q651.7981,294.5738 653.1419,294.5738 Q653.7669,294.5738 654.3606,294.3081 Q654.9544,294.0269 655.5794,293.4488 L655.5794,296.1675 Z " fill="#000000"/><text fill="#000000" font-family="sans-serif" font-size="14" lengthAdjust="spacing" textLength="30.208" x="673.1106" y="295.3736">ATM</text><line style="stroke:#181818;stroke-width:0.5;" x1="531.22" x2="812.7093" y1="306.5269" y2="306.5269"/><text fill="#000000" font-family="sans-serif" font-size="14" lengthAdjust="spacing" textLength="51.9258" x="536.22" y="323.522">+id: int</text><text fill="#000000" font-family="sans-serif" font-size="14" lengthAdjust="spacing" textLength="107.2148" x="536.22" y="339.8189">branch: Branch</text><line style="stroke:#181818;stroke-width:1;" x1="531.22" x2="812.7093" y1="347.1206" y2="347.1206"/><text fill="#000000" font-family="sans-serif" font-size="14" lengthAdjust="spacing" textLength="73.876" x="536.22" y="364.1157">+prompt()</text><text fill="#000000" font-family="sans-serif" font-size="14" lengthAdjust="spacing" textLength="271.4893" x="536.22" y="380.4126">+ValidatePin(pin: int, card: Card): bool</text><text fill="#000000" font-family="sans-serif" font-size="14" lengthAdjust="spacing" textLength="215.7695" x="536.22" y="396.7095">+AcceptCard(card: Card): bool</text><text fill="#000000" font-family="sans-serif" font-size="14" lengthAdjust="spacing" textLength="160.9043" x="536.22" y="413.0064">+LockCard(card: Card)</text></g><!--class ATM_Transaction--><g class="entity" data-entity="ATM_Transaction" data-source-line="75" data-uid="ent0010" id="entity_ATM_Transaction"><rect fill="#F1F1F1" height="162.0781" rx="2.5" ry="2.5" style="stroke:#181818;stroke-width:0.5;" width="277.1455" x="384.39" y="44.2969"/><ellipse cx="459.035" cy="60.2969" fill="#ADD1B2" rx="11" ry="11" style="stroke:#181818;stroke-width:1;"/><path d="M462.0038,65.9375 Q461.4256,66.2344 460.785,66.375 Q460.1444,66.5313 459.4413,66.5313 Q456.9413,66.5313 455.6131,64.8906 Q454.3006,63.2344 454.3006,60.1094 Q454.3006,56.9844 455.6131,55.3281 Q456.9413,53.6719 459.4413,53.6719 Q460.1444,53.6719 460.785,53.8281 Q461.4413,53.9844 462.0038,54.2813 L462.0038,57 Q461.3788,56.4219 460.785,56.1563 Q460.1913,55.875 459.5663,55.875 Q458.2225,55.875 457.535,56.9531 Q456.8475,58.0156 456.8475,60.1094 Q456.8475,62.2031 457.535,63.2813 Q458.2225,64.3438 459.5663,64.3438 Q460.1913,64.3438 460.785,64.0781 Q461.3788,63.7969 462.0038,63.2188 L462.0038,65.9375 Z " fill="#000000"/><text fill="#000000" font-family="sans-serif" font-size="14" lengthAdjust="spacing" textLength="119.3555" x="479.535" y="65.1436">ATM_Transaction</text><line style="stroke:#181818;stroke-width:0.5;" x1="385.39" x2="660.5355" y1="76.2969" y2="76.2969"/><text fill="#000000" font-family="sans-serif" font-size="14" lengthAdjust="spacing" textLength="193.0537" x="390.39" y="93.292">+transactionIdRecpeipt: int</text><text fill="#000000" font-family="sans-serif" font-size="14" lengthAdjust="spacing" textLength="236.291" x="390.39" y="109.5889">+transactionDateTime: DateTime</text><text fill="#000000" font-family="sans-serif" font-size="14" lengthAdjust="spacing" textLength="140.6973" x="390.39" y="125.8857">+recordType: string</text><text fill="#000000" font-family="sans-serif" font-size="14" lengthAdjust="spacing" textLength="139.4395" x="390.39" y="142.1826">+recordAmount: int</text><text fill="#000000" font-family="sans-serif" font-size="14" lengthAdjust="spacing" textLength="67.0811" x="390.39" y="158.4795">atm: ATM</text><line style="stroke:#181818;stroke-width:1;" x1="385.39" x2="660.5355" y1="165.7813" y2="165.7813"/><text fill="#000000" font-family="sans-serif" font-size="14" lengthAdjust="spacing" textLength="178.1582" x="390.39" y="182.7764">+Action(CardInput: Card)</text><text fill="#000000" font-family="sans-serif" font-size="14" lengthAdjust="spacing" textLength="265.1455" x="390.39" y="199.0732">+GetAccount(CardInput: Card): string</text></g><!--reverse link Account to Cheque_Account--><g class="link" data-entity-1="Account" data-entity-2="Cheque_Account" data-source-line="88" data-uid="lnk11" id="link_Account_Cheque_Account"><path codeLine="88" d="M374.96,668.9869 C374.96,703.8169 374.96,724.4769 374.96,750.9969" fill="none" id="Account-backto-Cheque_Account" style="stroke:#181818;stroke-width:1;"/><polygon fill="none" points="374.96,650.9869,368.96,668.9869,380.96,668.9869,374.96,650.9869" style="stroke:#181818;stroke-width:1;"/></g><!--reverse link Account to Everyday_Account--><g class="link" data-entity-1="Account" data-entity-2="Everyday_Account" data-source-line="89" data-uid="lnk12" id="link_Account_Everyday_Account"><path codeLine="89" d="M528.3,668.9869 C528.3,703.8169 528.3,724.4769 528.3,750.9969" fill="none" id="Account-backto-Everyday_Account" style="stroke:#181818;stroke-width:1;"/><polygon fill="none" points="528.3,650.9869,522.3,668.9869,534.3,668.9869,528.3,650.9869" style="stroke:#181818;stroke-width:1;"/></g><!--reverse link Account to CreditAccount--><g class="link" data-entity-1="Account" data-entity-2="CreditAccount" data-source-line="90" data-uid="lnk13" id="link_Account_CreditAccount"><path codeLine="90" d="M541.45,668.9369 C541.45,702.3369 541.45,715.3169 541.45,715.3169 C541.45,715.3169 654.23,715.3169 759.19,715.3169" fill="none" id="Account-backto-CreditAccount" style="stroke:#181818;stroke-width:1;"/><polygon fill="none" points="541.45,650.9369,535.45,668.9369,547.45,668.9369,541.45,650.9369" style="stroke:#181818;stroke-width:1;"/></g><!--link ATM to Branch--><g class="link" data-entity-1="ATM" data-entity-2="Branch" data-source-line="94" data-uid="lnk14" id="link_ATM_Branch"><path codeLine="94" d="M671.96,420.7469 C671.96,445.0069 671.96,465.9869 671.96,490.2369" fill="none" id="ATM-to-Branch" style="stroke:#181818;stroke-width:1;"/><polygon fill="#181818" points="671.96,496.2369,675.96,487.2369,671.96,491.2369,667.96,487.2369,671.96,496.2369" style="stroke:#181818;stroke-width:1;"/><text fill="#000000" font-family="sans-serif" font-size="13" lengthAdjust="spacing" textLength="45.189" x="625.96" y="454.5638">branch</text></g><!--link Account to Customer--><g class="link" data-entity-1="Account" data-entity-2="Customer" data-source-line="95" data-uid="lnk15" id="link_Account_Customer"><path codeLine="95" d="M215.12,650.9869 C215.12,673.2969 215.12,691.1869 215.12,712.4469" fill="none" id="Account-to-Customer" style="stroke:#181818;stroke-width:1;"/><polygon fill="#181818" points="215.12,718.4469,219.12,709.4469,215.12,713.4469,211.12,709.4469,215.12,718.4469" style="stroke:#181818;stroke-width:1;"/><text fill="#000000" font-family="sans-serif" font-size="13" lengthAdjust="spacing" textLength="61.2168" x="153.12" y="680.7838">customer</text></g><!--link Card to Customer--><g class="link" data-entity-1="Card" data-entity-2="Customer" data-source-line="96" data-uid="lnk16" id="link_Card_Customer"><path codeLine="96" d="M254.47,348.3169 C181.01,348.3169 101.16,348.3169 101.16,348.3169 C101.16,348.3169 101.16,590.9069 101.16,712.2869" fill="none" id="Card-to-Customer" style="stroke:#181818;stroke-width:1;"/><polygon fill="#181818" points="101.16,718.2869,105.16,709.2869,101.16,713.2869,97.16,709.2869,101.16,718.2869" style="stroke:#181818;stroke-width:1;"/><text fill="#000000" font-family="sans-serif" font-size="13" lengthAdjust="spacing" textLength="40.168" x="60.16" y="452.7138">owner</text></g><!--link Card to Account--><g class="link" data-entity-1="Card" data-entity-2="Account" data-source-line="97" data-uid="lnk17" id="link_Card_Account"><path codeLine="97" d="M374.96,428.8469 C374.96,448.1669 374.96,462.7669 374.96,482.0769" fill="none" id="Card-to-Account" style="stroke:#181818;stroke-width:1;"/><polygon fill="#181818" points="374.96,488.0769,378.96,479.0769,374.96,483.0769,370.96,479.0769,374.96,488.0769" style="stroke:#181818;stroke-width:1;"/><text fill="#000000" font-family="sans-serif" font-size="13" lengthAdjust="spacing" textLength="58.5635" x="375.96" y="454.5338">accounts</text><text fill="#000000" font-family="sans-serif" font-size="13" lengthAdjust="spacing" textLength="8.271" x="366.6283" y="448.562">1</text><text fill="#000000" font-family="sans-serif" font-size="13" lengthAdjust="spacing" textLength="23.0356" x="350.9736" y="477.508">0..*</text></g><!--link ATM_Transaction to ATM--><g class="link" data-entity-1="ATM_Transaction" data-entity-2="ATM" data-source-line="98" data-uid="lnk18" id="link_ATM_Transaction_ATM"><path codeLine="98" d="M595.87,206.7769 C595.87,228.8069 595.87,246.5169 595.87,268.0769" fill="none" id="ATM_Transaction-to-ATM" style="stroke:#181818;stroke-width:1;"/><polygon fill="#181818" points="595.87,274.0769,599.87,265.0769,595.87,269.0769,591.87,265.0769,595.87,274.0769" style="stroke:#181818;stroke-width:1;"/><text fill="#000000" font-family="sans-serif" font-size="13" lengthAdjust="spacing" textLength="25.7271" x="569.87" y="236.4938">atm</text></g><!--link ATM_Transaction to Card--><g class="link" data-entity-1="ATM_Transaction" data-entity-2="Card" data-source-line="99" data-uid="lnk19" id="link_ATM_Transaction_Card"><path codeLine="99" d="M439.8,206.7769 C439.8,226.0869 439.8,240.6869 439.8,259.9969" fill="none" id="ATM_Transaction-to-Card" style="stroke:#181818;stroke-width:1;stroke-dasharray:7,7;"/><polygon fill="#181818" points="439.8,265.9969,443.8,256.9969,439.8,260.9969,435.8,256.9969,439.8,265.9969" style="stroke:#181818;stroke-width:1;"/><text fill="#000000" font-family="sans-serif" font-size="13" lengthAdjust="spacing" textLength="29.7832" x="409.8" y="232.4538">uses</text></g><!--SRC=[dLLHRvim47xdLrXv6LrBrBrQNIHAimqfIwg0zXePk2HMmMQsQTLj_U-pCGP2cZqiJyvzvxllpjyTYgeIK9X-toKvC28eHm6AIY8bUg3a84ZbUVA9ifhe8yeD42ebQDOeY7FE4leBqEt8fQGCr6iDY0jrv9xt0Nr-xuUYLPWao-HzrFFQJEXU49OVqMyFeMjxNfCAC9AQ0JkqLfbXH9aovx0e14WvXfCcQqHsOb54dKHuv595l00RvisbZXgfU0N29jzJ8TKqj_Oxi-NTjJNlQHKwuMP_JtK_Jl8UEODrKsKWDEKLbUhEWek1H9Zdl67ASY3sZuayHCb8gTkYAHIyoKemfbhVVE6Y6BavLhWlInk3e6jQokzj59yK1LMKCnVk2gECyzBuRQ7Yp_15yCevooPJWkGN_4j-eCm_uto3flJSdQ7pH_ZPm6vSE_8fEuAWQcW9SIgKLyFLvJE8ruAy_jVbI82kVdmpo5lJYbPKkUViR35JeCMcjgsQzYKd1lnt9jVo15Gq1FQdIOpZjNG-uqJ-nTpjdUX8n04SwezB8wAm8ihroOeEev9R3TMKzMADvOhdJr3q3ybVs4GttPiwqNQLBiQAwcpk-R5hHqlJfj_iEvlqhoQZfxUH9KiBnojhXnzt2w5FLMivrgPIVVv1Icf6xL7BpbLqWqozkAr_f4sT6MfbZFwxk6d153sXjqir3scrRwcgmH0NMyXhe7MlcJ7we2ccr2mDTp8E0d8z4gdUc-FXjjQmiZsqiOYgiA7WUc2gCN5zmp9cTQCSOGrz1QVdCxZFytPvHyVhRyjjd8RhQ7bfJpkTt_q9WidadcBJqPpS7C_UPKBwax69uZ2DD-kBNmwZdY1Ok6y7xhJJvpDOlznnlngzTaOcO2j-Yym-pLfqTZkVVvpryutxSV2ckZ3UXWmsRtQ6pkSBEvOODHBaNm00]--></g></svg>